# xmcd
#
# Track frame offsets:
#	150
#	28115
#	57980
#	77390
#	106040
#	133556
#	158939
#	193565
#
# Disc length: 2750 seconds
#
# Revision: 2
# Processed by: cddbd v1.5.2PL0 Copyright (c) Steve Scherf et al.
# Submitted via: audiograbber 1.83.01
#
DISCID=5b0abc08
DTITLE=Meute - Live In Paris [CD 1)
DYEAR=2019
DGENRE=Big Band
TTITLE0=Gula [live]
TTITLE1=Rej [live]
TTITLE2=Customer Is King [live]
TTITLE3=Think Twice [live]
TTITLE4=Versatile [live]
TTITLE5=Araya [live]
TTITLE6=Hey Hey [live]
TTITLE7=Wixn [live]
EXTD=
EXTT0=
EXTT1=
EXTT2=
EXTT3=
EXTT4=
EXTT5=
EXTT6=
EXTT7=
PLAYORDER=
